<svg width="1976" height="434" viewBox="0 0 1976 434" fill="none" xmlns="http://www.w3.org/2000/svg">
<path d="M542.168 367.718V206.116H503V164.066H542.168V100.573H592.461V164.058H632.042V206.108H592.461V367.71H542.168V367.718Z" fill="black"/>
<path d="M649.348 92.7423C649.348 75.8427 662.952 62.644 680.264 62.644C697.577 62.644 710.362 75.8349 710.362 92.7423C710.362 109.65 696.759 123.246 680.264 123.246C662.952 123.246 649.348 109.642 649.348 92.7423ZM655.121 164.065H705.415V367.717H655.121V164.065Z" fill="black"/>
<path d="M749.109 367.718V164.065H795.281L799.403 187.977C809.711 171.078 830.32 157.879 859.592 157.879C890.508 157.879 911.951 173.135 922.664 196.633C932.972 173.135 956.884 157.879 987.8 157.879C1037.27 157.879 1064.48 187.564 1064.48 234.562V367.718H1014.6V247.753C1014.6 218.481 998.934 203.233 975.022 203.233C951.11 203.233 932.146 218.894 932.146 252.288V367.718H881.852V247.34C881.852 218.894 866.597 203.638 842.685 203.638C818.773 203.638 799.395 219.307 799.395 252.288V367.718H749.102H749.109Z" fill="black"/>
<path d="M1105.7 367.717V61H1155.99V193.743C1169.18 171.069 1196.39 157.466 1227.32 157.466C1285.44 157.466 1320.9 202.812 1320.9 267.122C1320.9 331.433 1282.56 373.07 1224.02 373.07C1193.52 373.07 1167.54 359.466 1155.59 335.967L1152.29 367.71H1105.71L1105.7 367.717ZM1213.71 326.906C1249.16 326.906 1270.19 301.342 1270.19 265.065C1270.19 228.788 1249.17 202.812 1213.71 202.812C1178.25 202.812 1156.41 228.375 1156.41 265.065C1156.41 301.755 1179.08 326.906 1213.71 326.906Z" fill="black"/>
<path d="M1343.56 309.586C1343.56 272.07 1370.77 248.571 1419.01 244.862L1480.02 240.328V235.793C1480.02 208.173 1463.54 197.039 1437.97 197.039C1408.29 197.039 1391.8 209.404 1391.8 230.846H1348.92C1348.92 186.738 1385.2 157.879 1440.44 157.879C1495.68 157.879 1529.08 187.564 1529.08 244.044V367.718H1484.96L1481.25 337.619C1472.6 358.641 1444.98 373.07 1413.23 373.07C1369.94 373.07 1343.56 347.92 1343.56 309.586ZM1480.43 285.261V274.54L1437.96 277.836C1406.63 280.719 1394.67 291.027 1394.67 307.521C1394.67 326.072 1407.04 335.142 1429.72 335.142C1460.64 335.142 1480.43 316.59 1480.43 285.261Z" fill="black"/>
<path d="M1571.12 367.717V61H1621V367.717H1571.12Z" fill="black"/>
<path d="M380 35L379.452 267.093L188.272 399L188.586 268.896L0 399L0.547719 166.907L191.728 35L191.414 165.104L380 35Z" fill="black"/>
</svg>
