<?xml version="1.0" encoding="UTF-8"?>
<svg id="Capa_1" data-name="Capa 1" xmlns="http://www.w3.org/2000/svg" viewBox="0 0 1975.28 433.45">
  <defs>
    <style>
      .cls-1 {
        fill: #000;
      }
    </style>
  </defs>
  <g>
    <path class="cls-1" d="M590.64,393.66v-207.41h-50.27v-53.97h50.27V50.79h64.55v81.48h50.8v53.97h-50.8v207.41h-64.55Z"/>
    <path class="cls-1" d="M728.2,40.74c0-21.69,17.46-38.63,39.68-38.63s38.63,16.93,38.63,38.63-17.46,39.15-38.63,39.15c-22.22,0-39.68-17.46-39.68-39.15ZM735.61,132.28h64.55v261.38h-64.55V132.28Z"/>
    <path class="cls-1" d="M856.24,393.66V132.28h59.26l5.29,30.69c13.23-21.69,39.68-38.63,77.25-38.63,39.68,0,67.2,19.58,80.95,49.74,13.23-30.16,43.92-49.74,83.6-49.74,63.49,0,98.42,38.1,98.42,98.42v170.9h-64.02v-153.97c0-37.57-20.11-57.14-50.8-57.14s-55.03,20.1-55.03,62.96v148.15h-64.55v-154.5c0-36.51-19.58-56.09-50.27-56.09s-55.56,20.11-55.56,62.44v148.15h-64.55Z"/>
    <path class="cls-1" d="M1313.91,393.66V0h64.55v170.37c16.93-29.1,51.85-46.56,91.54-46.56,74.6,0,120.11,58.2,120.11,140.74s-49.21,135.98-124.34,135.98c-39.15,0-72.49-17.46-87.83-47.62l-4.23,40.74h-59.79ZM1452.54,341.28c45.5,0,72.49-32.81,72.49-79.37s-26.98-79.9-72.49-79.9-73.55,32.81-73.55,79.9,29.1,79.37,73.55,79.37Z"/>
    <path class="cls-1" d="M1619.2,319.05c0-48.15,34.92-78.31,96.83-83.07l78.31-5.82v-5.82c0-35.45-21.16-49.74-53.97-49.74-38.1,0-59.26,15.87-59.26,43.39h-55.03c0-56.61,46.56-93.65,117.46-93.65s113.76,38.1,113.76,110.59v158.73h-56.62l-4.76-38.63c-11.11,26.98-46.56,45.5-87.3,45.5-55.56,0-89.42-32.28-89.42-81.48ZM1794.86,287.83v-13.76l-54.5,4.23c-40.21,3.7-55.56,16.93-55.56,38.1,0,23.81,15.87,35.45,44.98,35.45,39.68,0,65.08-23.81,65.08-64.02Z"/>
    <path class="cls-1" d="M1911.26,393.66V0h64.02v393.66h-64.02Z"/>
  </g>
  <polygon class="cls-1" points="423.21 27.58 422.6 286.37 209.68 433.45 210.03 288.38 0 433.45 .61 174.66 213.53 27.58 213.18 172.65 423.21 27.58"/>
</svg>