<?xml version="1.0" encoding="UTF-8"?>
<svg id="Capa_1" xmlns="http://www.w3.org/2000/svg" version="1.1" viewBox="0 0 871.05 632.96">
  <!-- Generator: Adobe Illustrator 29.0.0, SVG Export Plug-In . SVG Version: 2.1.0 Build 186)  -->
  <defs>
    <style>
      .st0 {
        fill: #fff;
      }
    </style>
  </defs>
  <path class="st0" d="M649.65,394.32h0c3.06,0,6.02,1.17,8.26,3.26,29.71,27.75,54.85,52.35,74.92,77.02,9.66,11.88,27.53,12.66,38.35,1.84l92.26-92.26c9.54-9.54,10.2-24.82,1.48-35.11-30.53-36.03-63.9-66.98-94.73-95.55-72.17-66.89-120.03-114.61-136.3-184.37C624.51,28.9,589.3,0,547.97,0h-5.14c-56.82,0-99.15,52.77-86.47,108.16,9.65,42.19,25.35,79.2,44.65,112.27,4.71,8.08-1.03,18.21-10.38,18.21h-3.5c-3.08,0-6.06-1.19-8.3-3.3-61.16-57.62-101.87-102.69-116.72-165.72C352.52,28.96,316.59,0,274.81,0h-2.72c-57.42,0-100.35,53.36-87.38,109.29,9.68,41.73,25.27,78.38,44.4,111.16,4.71,8.07-1.06,18.18-10.4,18.18h-3.5c-3.08,0-6.06-1.19-8.3-3.3-26.94-25.39-49.91-48.33-68.45-71.46-9.65-12.04-27.63-12.99-38.54-2.07L7.61,254.15c-9.51,9.51-10.19,24.73-1.54,35.03,31.02,36.95,65.13,68.59,96.63,97.79,70.51,65.36,117.53,112.08,134.92,178.86,10.35,39.71,46.66,67.13,87.7,67.13h0c59.77,0,103.2-56.7,87.77-114.44-10.57-39.58-26.51-74.49-45.62-105.81-4.92-8.06.83-18.39,10.27-18.39h0c3.06,0,6.02,1.17,8.26,3.26,63.91,59.69,106.72,104.77,123.31,167.46,10.58,39.97,46.56,67.92,87.9,67.92h0c59.77,0,103.2-56.7,87.77-114.45-10.57-39.58-26.51-74.48-45.62-105.8-4.92-8.06.83-18.39,10.27-18.39h.02Z"/>
</svg>