<?xml version="1.0" encoding="UTF-8"?>
<svg id="Capa_1" data-name="Capa 1" xmlns="http://www.w3.org/2000/svg" version="1.1" viewBox="0 0 2000 344.21">
  <defs>
    <style>
      .cls-1 {
        fill: #000;
        stroke-width: 0px;
      }
    </style>
  </defs>
  <g>
    <path class="cls-1" d="M1254.56,169.05v168.58h-70.91v-146.51c0-13.15-2.97-23.4-8.92-30.76-5.95-7.36-15.03-11.04-27.24-11.04-16.59,0-29.58,8.85-38.98,26.53-9.39,17.69-14.09,43.44-14.09,77.25v84.52h-71.38v-146.51c0-13.15-3.05-23.4-9.16-30.76-6.11-7.36-15.42-11.04-27.94-11.04-16.28,0-29.04,8.22-38.27,24.66-9.24,16.43-13.85,42.03-13.85,76.78v86.87h-71.38V97.2h58.7l5.16,55.86c.27,2.94,2.74,5.19,5.69,5.19h0c2.49,0,4.66-1.67,5.41-4.04,13.54-42.39,39.74-63.58,78.6-63.58,22.23,0,39.6,5.79,52.12,17.37,11.49,10.63,18.1,25.6,19.84,44.92.27,2.99,2.68,5.33,5.67,5.33h.25c2.54,0,4.74-1.73,5.45-4.17,12.42-42.3,38.64-63.45,78.67-63.45,24.42,0,43.28,6.73,56.59,20.19,13.31,13.46,19.96,32.87,19.96,58.23Z"/>
    <path class="cls-1" d="M1796.47,162.96c-3.94-28.69-18.93-49.38-45.49-61.34-18.78-8.45-38.74-10.97-59.1-11-25.9-.03-50.96,3.41-73.97,16.12-19.73,10.9-37.73,29.04-43.75,57.8l64.21,12.26c2.94-10.77,13.27-36.06,45.65-36.06,34.49,0,41.73,20.62,41.73,42.88v12.93s-23.96-2.53-44.28-2.53c-24.37,0-53.44,2.29-80.48,16.67-25.81,13.72-38.32,35.16-38.32,62.56,0,24.73,10.41,44.45,27.15,56.04,16.96,11.74,33.61,14.91,54.31,14.91,48.11,0,69.03-22.04,80.64-59.58.71-2.3,2.87-3.85,5.27-3.85,2.92,0,5.34,2.27,5.53,5.18l3.4,52.04h58.53v-155.84c-.03-6.4-.16-12.86-1.03-19.19ZM1667.86,296.31c-9.7,0-17.45-2.58-23.25-7.75-5.79-5.17-8.69-12.45-8.69-21.84,0-13.15,5.63-23.09,16.9-29.82,11.27-6.73,27.08-10.1,47.43-10.1,7.83,0,15.96.47,24.42,1.41-3.76,45.39-22.7,68.09-56.82,68.09Z"/>
    <path class="cls-1" d="M1254.56,169.05v168.58h-70.91v-146.51c0-13.15-2.97-23.4-8.92-30.76-5.95-7.36-15.03-11.04-27.24-11.04-16.59,0-29.58,8.85-38.98,26.53-9.39,17.69-14.09,43.44-14.09,77.25v84.52h-71.38v-146.51c0-13.15-3.05-23.4-9.16-30.76-6.11-7.36-15.42-11.04-27.94-11.04-16.28,0-29.04,8.22-38.27,24.66-9.24,16.43-13.85,42.03-13.85,76.78v86.87h-71.38V97.2h58.7l5.16,55.86c.27,2.94,2.74,5.19,5.69,5.19h0c2.49,0,4.66-1.67,5.41-4.04,13.54-42.39,39.74-63.58,78.6-63.58,22.23,0,39.6,5.79,52.12,17.37,11.49,10.63,18.1,25.6,19.84,44.92.27,2.99,2.68,5.33,5.67,5.33h.25c2.54,0,4.74-1.73,5.45-4.17,12.42-42.3,38.64-63.45,78.67-63.45,24.42,0,43.28,6.73,56.59,20.19,13.31,13.46,19.96,32.87,19.96,58.23Z"/>
    <path class="cls-1" d="M1796.47,162.96c-3.94-28.69-18.93-49.38-45.49-61.34-18.78-8.45-38.74-10.97-59.1-11-25.9-.03-50.96,3.41-73.97,16.12-19.73,10.9-37.73,29.04-43.75,57.8l64.21,12.26c2.94-10.77,13.27-36.06,45.65-36.06,34.49,0,41.73,20.62,41.73,42.88v12.93s-23.96-2.53-44.28-2.53c-24.37,0-53.44,2.29-80.48,16.67-25.81,13.72-38.32,35.16-38.32,62.56,0,24.73,10.41,44.45,27.15,56.04,16.96,11.74,33.61,14.91,54.31,14.91,48.11,0,69.03-22.04,80.64-59.58.71-2.3,2.87-3.85,5.27-3.85,2.92,0,5.34,2.27,5.53,5.18l3.4,52.04h58.53v-155.84c-.03-6.4-.16-12.86-1.03-19.19ZM1667.86,296.31c-9.7,0-17.45-2.58-23.25-7.75-5.79-5.17-8.69-12.45-8.69-21.84,0-13.15,5.63-23.09,16.9-29.82,11.27-6.73,27.08-10.1,47.43-10.1,7.83,0,15.96.47,24.42,1.41-3.76,45.39-22.7,68.09-56.82,68.09Z"/>
    <path class="cls-1" d="M762.36,8.45c7.2-5.64,18.16-8.45,32.87-8.45s25.75,2.9,33.11,8.69c7.36,5.79,11.04,13.54,11.04,23.24,0,21.6-14.71,32.4-44.14,32.4s-43.67-10.8-43.67-32.4c0-10.02,3.6-17.84,10.8-23.48ZM759.54,337.63V97.2h71.38v240.43h-71.38Z"/>
    <path class="cls-1" d="M1549.53,216.95c0,43.2-9.47,75.21-28.41,96.03-18.94,20.82-43.91,31.23-74.9,31.23-23.79,0-42.89-5.48-57.29-16.43-13.47-10.25-23.24-25.43-29.32-45.54-.75-2.48-2.98-4.24-5.57-4.24h0c-3.09,0-5.65,2.4-5.84,5.48l-3.41,54.15h-58.7V6.57h71.38v60.11c0,14.71-1.1,37.1-3.29,67.15-.74,8.11-1.26,14.27-1.56,18.48-.23,3.24,2.33,5.94,5.58,5.94h0c2.38,0,4.45-1.55,5.24-3.8,7.24-20.65,18.16-36.29,32.77-46.92,15.5-11.27,33.89-16.9,55.18-16.9,29.11,0,52.75,10.64,70.91,31.93,18.16,21.29,27.24,52.75,27.24,94.39ZM1475.34,216.01c0-23.79-4.54-42.03-13.62-54.71-9.08-12.68-21.6-19.02-37.57-19.02-17.22,0-31.07,6.81-41.56,20.43-10.49,13.62-15.73,32.64-15.73,57.05s4.85,42.03,14.56,54.71c9.7,12.68,23.64,19.02,41.79,19.02,16.91,0,29.82-6.42,38.74-19.25,8.92-12.84,13.38-32.25,13.38-58.23Z"/>
    <path class="cls-1" d="M1829.04,337.63V6.57h70.91v331.06h-70.91Z"/>
    <path class="cls-1" d="M725.61,266.12c-4.59,5.33-10.75,10.55-18.65,15.63-8.77,5.63-18,8.45-27.71,8.45-20.66,0-30.99-9.55-30.99-28.65v-116.46h82.65v-47.9h-82.65V16.52h-70.91v257.72c0,22.54,6.58,39.84,19.72,51.89,13.15,12.05,32.87,18.08,59.17,18.08,21.29,0,39.6-4.07,54.94-12.21,14.29-7.58,24.72-15.71,31.4-24.37l-16.98-41.5Z"/>
    <path class="cls-1" d="M762.36,8.45c7.2-5.64,18.16-8.45,32.87-8.45s25.75,2.9,33.11,8.69c7.36,5.79,11.04,13.54,11.04,23.24,0,21.6-14.71,32.4-44.14,32.4s-43.67-10.8-43.67-32.4c0-10.02,3.6-17.84,10.8-23.48Z"/>
    <rect class="cls-1" x="759.54" y="97.2" width="71.38" height="240.43"/>
    <path class="cls-1" d="M1549.53,216.95c0,43.2-9.47,75.21-28.41,96.03-18.94,20.82-43.91,31.23-74.9,31.23-23.79,0-42.89-5.48-57.29-16.43-13.47-10.25-23.24-25.43-29.32-45.54-.75-2.48-2.98-4.24-5.57-4.24h0c-3.09,0-5.65,2.4-5.84,5.48l-3.41,54.15h-58.7V6.57h71.38v60.11c0,14.71-1.1,37.1-3.29,67.15-.74,8.11-1.26,14.27-1.56,18.48-.23,3.24,2.33,5.94,5.58,5.94h0c2.38,0,4.45-1.55,5.24-3.8,7.24-20.65,18.16-36.29,32.77-46.92,15.5-11.27,33.89-16.9,55.18-16.9,29.11,0,52.75,10.64,70.91,31.93,18.16,21.29,27.24,52.75,27.24,94.39ZM1475.34,216.01c0-23.79-4.54-42.03-13.62-54.71-9.08-12.68-21.6-19.02-37.57-19.02-17.22,0-31.07,6.81-41.56,20.43-10.49,13.62-15.73,32.64-15.73,57.05s4.85,42.03,14.56,54.71c9.7,12.68,23.64,19.02,41.79,19.02,16.91,0,29.82-6.42,38.74-19.25,8.92-12.84,13.38-32.25,13.38-58.23Z"/>
    <path class="cls-1" d="M1829.04,337.63V6.57h70.91v331.06h-70.91Z"/>
    <path class="cls-1" d="M725.61,266.12c-4.59,5.33-10.75,10.55-18.65,15.63-8.77,5.63-18,8.45-27.71,8.45-20.66,0-30.99-9.55-30.99-28.65v-116.46h82.65v-47.9h-82.65V16.52h-70.91v257.72c0,22.54,6.58,39.84,19.72,51.89,13.15,12.05,32.87,18.08,59.17,18.08,21.29,0,39.6-4.07,54.94-12.21,14.29-7.58,24.72-15.71,31.4-24.37l-16.98-41.5Z"/>
    <path class="cls-1" d="M1975.44,60.37l-3.11-10.74h-15.82l-3.11,10.74h-10.48l14.11-43.84h15l14.17,43.84h-10.74ZM1970.16,42.38l-1.97-6.86c-.51-1.82-.97-3.88-1.4-6.17-.3-1.65-.53-3.15-.68-4.49-.1-.85-.81-1.48-1.66-1.48h0c-.85,0-1.57.63-1.66,1.47-.33,2.84-1.07,6.39-2.21,10.66l-1.97,6.86h11.57Z"/>
    <path class="cls-1" d="M1989.9,60.37V16.52h10.1v43.84h-10.1Z"/>
  </g>
  <path class="cls-1" d="M346.53,210.34h0c1.63,0,3.21.63,4.41,1.74,15.85,14.8,29.26,27.92,39.96,41.08,5.15,6.34,14.68,6.76,20.46.98l49.21-49.21c5.09-5.09,5.44-13.24.79-18.73-16.28-19.22-34.09-35.73-50.53-50.97-38.5-35.68-64.03-61.13-72.7-98.34C333.12,15.41,314.34,0,292.3,0c-.91,0-1.83,0-2.74,0-30.31,0-52.89,28.15-46.13,57.69,5.15,22.5,13.52,42.25,23.82,59.89,2.51,4.31-.55,9.71-5.54,9.71h-1.87c-1.64,0-3.23-.63-4.43-1.76-32.62-30.74-54.34-54.78-62.26-88.4C188.04,15.45,168.87,0,146.59,0h-1.45c-30.63,0-53.53,28.46-46.61,58.3,5.16,22.26,13.48,41.81,23.68,59.3,2.51,4.3-.57,9.7-5.55,9.7h-1.87c-1.64,0-3.23-.63-4.43-1.76-14.37-13.54-26.62-25.78-36.51-38.12-5.15-6.42-14.74-6.93-20.56-1.11L4.06,135.57c-5.07,5.07-5.44,13.19-.82,18.69,16.55,19.71,34.74,36.59,51.54,52.16,37.61,34.86,62.69,59.79,71.97,95.41,5.52,21.18,24.89,35.81,46.78,35.81h0c31.88,0,55.05-30.25,46.82-61.05-5.64-21.11-14.14-39.73-24.33-56.44-2.62-4.3.44-9.81,5.48-9.81h0c1.63,0,3.21.63,4.41,1.74,34.09,31.84,56.92,55.88,65.77,89.33,5.64,21.32,24.84,36.23,46.89,36.23h0c31.88,0,55.05-30.25,46.82-61.05-5.64-21.11-14.14-39.73-24.33-56.44-2.62-4.3.44-9.81,5.48-9.81Z"/>
</svg>