<svg width="1976" height="434" viewBox="0 0 1976 434" fill="none" xmlns="http://www.w3.org/2000/svg">
<path d="M542.168 367.717V206.115H503V164.065H542.168V100.573H592.461V164.057H632.042V206.108H592.461V367.71H542.168V367.717Z" fill="white"/>
<path d="M649.344 92.7423C649.344 75.8427 662.948 62.644 680.26 62.644C697.573 62.644 710.358 75.8349 710.358 92.7423C710.358 109.65 696.755 123.246 680.26 123.246C662.948 123.246 649.344 109.642 649.344 92.7423ZM655.117 164.065H705.411V367.717H655.117V164.065Z" fill="white"/>
<path d="M749.105 367.717V164.065H795.277L799.399 187.977C809.707 171.077 830.315 157.878 859.588 157.878C890.504 157.878 911.946 173.134 922.659 196.633C932.968 173.134 956.879 157.878 987.796 157.878C1037.26 157.878 1064.48 187.564 1064.48 234.562V367.717H1014.6V247.753C1014.6 218.48 998.93 203.232 975.018 203.232C951.106 203.232 932.142 218.893 932.142 252.287V367.717H881.848V247.34C881.848 218.893 866.592 203.637 842.681 203.637C818.769 203.637 799.391 219.306 799.391 252.287V367.717H749.098H749.105Z" fill="white"/>
<path d="M1105.7 367.717V61H1155.99V193.743C1169.18 171.069 1196.39 157.466 1227.31 157.466C1285.44 157.466 1320.89 202.812 1320.89 267.122C1320.89 331.433 1282.55 373.07 1224.02 373.07C1193.51 373.07 1167.54 359.466 1155.58 335.967L1152.29 367.709H1105.7L1105.7 367.717ZM1213.71 326.906C1249.16 326.906 1270.19 301.342 1270.19 265.065C1270.19 228.788 1249.17 202.812 1213.71 202.812C1178.25 202.812 1156.4 228.375 1156.4 265.065C1156.4 301.755 1179.07 326.906 1213.71 326.906Z" fill="white"/>
<path d="M1343.56 309.585C1343.56 272.07 1370.77 248.571 1419.01 244.862L1480.02 240.327V235.793C1480.02 208.172 1463.53 197.038 1437.97 197.038C1408.29 197.038 1391.8 209.403 1391.8 230.845H1348.92C1348.92 186.738 1385.2 157.878 1440.44 157.878C1495.68 157.878 1529.08 187.564 1529.08 244.044V367.717H1484.96L1481.25 337.619C1472.6 358.64 1444.98 373.07 1413.23 373.07C1369.94 373.07 1343.56 347.919 1343.56 309.585ZM1480.43 285.26V274.539L1437.96 277.835C1406.63 280.718 1394.67 291.026 1394.67 307.521C1394.67 326.072 1407.04 335.141 1429.72 335.141C1460.64 335.141 1480.43 316.59 1480.43 285.26Z" fill="white"/>
<path d="M1571.12 367.717V61H1621V367.717H1571.12Z" fill="white"/>
<path d="M380 35L379.452 267.093L188.272 399L188.586 268.896L0 399L0.547719 166.907L191.728 35L191.414 165.104L380 35Z" fill="white"/>
</svg>
